<svg xmlns="http://www.w3.org/2000/svg" width="2100" height="1100" viewBox="0 0 2100 1100"><rect width="2100" height="1100" fill="#1a1a2e"/><rect x="50" y="50" width="2000" height="1000" fill="#2a4a2a" stroke="#4a6a4a" stroke-width="2"/><line x1="386.0" y1="240.0" x2="718.0" y2="240.0" stroke="#ffffff" stroke-width="3" opacity="0.9"/><circle cx="386.0" cy="240.0" r="2" fill="#00ff00" opacity="0.5"/><circle cx="718.0" cy="240.0" r="2" fill="#ff0000" opacity="0.5"/><line x1="718.0" y1="240.0" x2="1050.0" y2="240.0" stroke="#ffffff" stroke-width="3" opacity="0.9"/><circle cx="718.0" cy="240.0" r="2" fill="#00ff00" opacity="0.5"/><circle cx="1050.0" cy="240.0" r="2" fill="#ff0000" opacity="0.5"/><line x1="1050.0" y1="240.0" x2="1382.0" y2="240.0" stroke="#ffffff" stroke-width="3" opacity="0.9"/><circle cx="1050.0" cy="240.0" r="2" fill="#00ff00" opacity="0.5"/><circle cx="1382.0" cy="240.0" r="2" fill="#ff0000" opacity="0.5"/><line x1="1382.0" y1="240.0" x2="1714.0" y2="240.0" stroke="#ffffff" stroke-width="3" opacity="0.9"/><circle cx="1382.0" cy="240.0" r="2" fill="#00ff00" opacity="0.5"/><circle cx="1714.0" cy="240.0" r="2" fill="#ff0000" opacity="0.5"/><path d="M 1714.0 240.0 L 1741.0 241.2 L 1767.8 244.7 L 1794.2 250.6" stroke="#ffcc00" stroke-width="3" fill="none" opacity="0.9"/><circle cx="1714.0" cy="240.0" r="2" fill="#00ff00" opacity="0.5"/><circle cx="1794.2" cy="250.6" r="2" fill="#ff0000" opacity="0.5"/><path d="M 1794.2 250.6 L 1820.0 258.7 L 1845.0 269.0 L 1869.0 281.5" stroke="#ffcc00" stroke-width="3" fill="none" opacity="0.9"/><circle cx="1794.2" cy="250.6" r="2" fill="#00ff00" opacity="0.5"/><circle cx="1869.0" cy="281.5" r="2" fill="#ff0000" opacity="0.5"/><path d="M 1869.0 281.5 L 1891.8 296.1 L 1913.3 312.5 L 1933.2 330.8" stroke="#ffcc00" stroke-width="3" fill="none" opacity="0.9"/><circle cx="1869.0" cy="281.5" r="2" fill="#00ff00" opacity="0.5"/><circle cx="1933.2" cy="330.8" r="2" fill="#ff0000" opacity="0.5"/><path d="M 1933.2 330.8 L 1951.5 350.7 L 1967.9 372.2 L 1982.5 395.0" stroke="#ffcc00" stroke-width="3" fill="none" opacity="0.9"/><circle cx="1933.2" cy="330.8" r="2" fill="#00ff00" opacity="0.5"/><circle cx="1982.5" cy="395.0" r="2" fill="#ff0000" opacity="0.5"/><path d="M 1982.5 395.0 L 1995.0 419.0 L 2005.3 444.0 L 2013.4 469.8" stroke="#ffcc00" stroke-width="3" fill="none" opacity="0.9"/><circle cx="1982.5" cy="395.0" r="2" fill="#00ff00" opacity="0.5"/><circle cx="2013.4" cy="469.8" r="2" fill="#ff0000" opacity="0.5"/><path d="M 2013.4 469.8 L 2019.3 496.2 L 2022.8 523.0 L 2024.0 550.0" stroke="#ffcc00" stroke-width="3" fill="none" opacity="0.9"/><circle cx="2013.4" cy="469.8" r="2" fill="#00ff00" opacity="0.5"/><circle cx="2024.0" cy="550.0" r="2" fill="#ff0000" opacity="0.5"/><path d="M 2024.0 550.0 L 2022.8 577.0 L 2019.3 603.8 L 2013.4 630.2" stroke="#ffcc00" stroke-width="3" fill="none" opacity="0.9"/><circle cx="2024.0" cy="550.0" r="2" fill="#00ff00" opacity="0.5"/><circle cx="2013.4" cy="630.2" r="2" fill="#ff0000" opacity="0.5"/><path d="M 2013.4 630.2 L 2005.3 656.0 L 1995.0 681.0 L 1982.5 705.0" stroke="#ffcc00" stroke-width="3" fill="none" opacity="0.9"/><circle cx="2013.4" cy="630.2" r="2" fill="#00ff00" opacity="0.5"/><circle cx="1982.5" cy="705.0" r="2" fill="#ff0000" opacity="0.5"/><path d="M 1982.5 705.0 L 1967.9 727.8 L 1951.5 749.3 L 1933.2 769.2" stroke="#ffcc00" stroke-width="3" fill="none" opacity="0.9"/><circle cx="1982.5" cy="705.0" r="2" fill="#00ff00" opacity="0.5"/><circle cx="1933.2" cy="769.2" r="2" fill="#ff0000" opacity="0.5"/><path d="M 1933.2 769.2 L 1913.3 787.5 L 1891.8 803.9 L 1869.0 818.5" stroke="#ffcc00" stroke-width="3" fill="none" opacity="0.9"/><circle cx="1933.2" cy="769.2" r="2" fill="#00ff00" opacity="0.5"/><circle cx="1869.0" cy="818.5" r="2" fill="#ff0000" opacity="0.5"/><path d="M 1869.0 818.5 L 1845.0 831.0 L 1820.0 841.3 L 1794.2 849.4" stroke="#ffcc00" stroke-width="3" fill="none" opacity="0.9"/><circle cx="1869.0" cy="818.5" r="2" fill="#00ff00" opacity="0.5"/><circle cx="1794.2" cy="849.4" r="2" fill="#ff0000" opacity="0.5"/><path d="M 1794.2 849.4 L 1767.8 855.3 L 1741.0 858.8 L 1714.0 860.0" stroke="#ffcc00" stroke-width="3" fill="none" opacity="0.9"/><circle cx="1794.2" cy="849.4" r="2" fill="#00ff00" opacity="0.5"/><circle cx="1714.0" cy="860.0" r="2" fill="#ff0000" opacity="0.5"/><line x1="1714.0" y1="860.0" x2="1382.0" y2="860.0" stroke="#ffffff" stroke-width="3" opacity="0.9"/><circle cx="1714.0" cy="860.0" r="2" fill="#00ff00" opacity="0.5"/><circle cx="1382.0" cy="860.0" r="2" fill="#ff0000" opacity="0.5"/><line x1="1382.0" y1="860.0" x2="1050.0" y2="860.0" stroke="#ffffff" stroke-width="3" opacity="0.9"/><circle cx="1382.0" cy="860.0" r="2" fill="#00ff00" opacity="0.5"/><circle cx="1050.0" cy="860.0" r="2" fill="#ff0000" opacity="0.5"/><line x1="1050.0" y1="860.0" x2="718.0" y2="860.0" stroke="#ffffff" stroke-width="3" opacity="0.9"/><circle cx="1050.0" cy="860.0" r="2" fill="#00ff00" opacity="0.5"/><circle cx="718.0" cy="860.0" r="2" fill="#ff0000" opacity="0.5"/><line x1="718.0" y1="860.0" x2="386.0" y2="860.0" stroke="#ffffff" stroke-width="3" opacity="0.9"/><circle cx="718.0" cy="860.0" r="2" fill="#00ff00" opacity="0.5"/><circle cx="386.0" cy="860.0" r="2" fill="#ff0000" opacity="0.5"/><path d="M 386.0 860.0 L 359.0 858.8 L 332.2 855.3 L 305.8 849.4" stroke="#ffcc00" stroke-width="3" fill="none" opacity="0.9"/><circle cx="386.0" cy="860.0" r="2" fill="#00ff00" opacity="0.5"/><circle cx="305.8" cy="849.4" r="2" fill="#ff0000" opacity="0.5"/><path d="M 305.8 849.4 L 280.0 841.3 L 255.0 831.0 L 231.0 818.5" stroke="#ffcc00" stroke-width="3" fill="none" opacity="0.9"/><circle cx="305.8" cy="849.4" r="2" fill="#00ff00" opacity="0.5"/><circle cx="231.0" cy="818.5" r="2" fill="#ff0000" opacity="0.5"/><path d="M 231.0 818.5 L 208.2 803.9 L 186.7 787.5 L 166.8 769.2" stroke="#ffcc00" stroke-width="3" fill="none" opacity="0.9"/><circle cx="231.0" cy="818.5" r="2" fill="#00ff00" opacity="0.5"/><circle cx="166.8" cy="769.2" r="2" fill="#ff0000" opacity="0.5"/><path d="M 166.8 769.2 L 148.5 749.3 L 132.1 727.8 L 117.5 705.0" stroke="#ffcc00" stroke-width="3" fill="none" opacity="0.9"/><circle cx="166.8" cy="769.2" r="2" fill="#00ff00" opacity="0.5"/><circle cx="117.5" cy="705.0" r="2" fill="#ff0000" opacity="0.5"/><path d="M 117.5 705.0 L 105.0 681.0 L 94.7 656.0 L 86.6 630.2" stroke="#ffcc00" stroke-width="3" fill="none" opacity="0.9"/><circle cx="117.5" cy="705.0" r="2" fill="#00ff00" opacity="0.5"/><circle cx="86.6" cy="630.2" r="2" fill="#ff0000" opacity="0.5"/><path d="M 86.6 630.2 L 80.7 603.8 L 77.2 577.0 L 76.0 550.0" stroke="#ffcc00" stroke-width="3" fill="none" opacity="0.9"/><circle cx="86.6" cy="630.2" r="2" fill="#00ff00" opacity="0.5"/><circle cx="76.0" cy="550.0" r="2" fill="#ff0000" opacity="0.5"/><path d="M 76.0 550.0 L 77.2 523.0 L 80.7 496.2 L 86.6 469.8" stroke="#ffcc00" stroke-width="3" fill="none" opacity="0.9"/><circle cx="76.0" cy="550.0" r="2" fill="#00ff00" opacity="0.5"/><circle cx="86.6" cy="469.8" r="2" fill="#ff0000" opacity="0.5"/><path d="M 86.6 469.8 L 94.7 444.0 L 105.0 419.0 L 117.5 395.0" stroke="#ffcc00" stroke-width="3" fill="none" opacity="0.9"/><circle cx="86.6" cy="469.8" r="2" fill="#00ff00" opacity="0.5"/><circle cx="117.5" cy="395.0" r="2" fill="#ff0000" opacity="0.5"/><path d="M 117.5 395.0 L 132.1 372.2 L 148.5 350.7 L 166.8 330.8" stroke="#ffcc00" stroke-width="3" fill="none" opacity="0.9"/><circle cx="117.5" cy="395.0" r="2" fill="#00ff00" opacity="0.5"/><circle cx="166.8" cy="330.8" r="2" fill="#ff0000" opacity="0.5"/><path d="M 166.8 330.8 L 186.7 312.5 L 208.2 296.1 L 231.0 281.5" stroke="#ffcc00" stroke-width="3" fill="none" opacity="0.9"/><circle cx="166.8" cy="330.8" r="2" fill="#00ff00" opacity="0.5"/><circle cx="231.0" cy="281.5" r="2" fill="#ff0000" opacity="0.5"/><path d="M 231.0 281.5 L 255.0 269.0 L 280.0 258.7 L 305.8 250.6" stroke="#ffcc00" stroke-width="3" fill="none" opacity="0.9"/><circle cx="231.0" cy="281.5" r="2" fill="#00ff00" opacity="0.5"/><circle cx="305.8" cy="250.6" r="2" fill="#ff0000" opacity="0.5"/><path d="M 305.8 250.6 L 332.2 244.7 L 359.0 241.2 L 386.0 240.0" stroke="#ffcc00" stroke-width="3" fill="none" opacity="0.9"/><circle cx="305.8" cy="250.6" r="2" fill="#00ff00" opacity="0.5"/><circle cx="386.0" cy="240.0" r="2" fill="#ff0000" opacity="0.5"/><text x="1050" y="20" text-anchor="middle" fill="white" font-size="16" font-family="sans-serif">Horská trať (TT) — 32 tracks, gap: 0.0000mm</text></svg>