<svg xmlns="http://www.w3.org/2000/svg" width="2100" height="1100" viewBox="0 0 2100 1100"><rect width="2100" height="1100" fill="#1a1a2e"/><rect x="50" y="50" width="2000" height="1000" fill="#2a4a2a" stroke="#4a6a4a" stroke-width="2"/><line x1="552.0" y1="240.0" x2="884.0" y2="240.0" stroke="#ffffff" stroke-width="3" opacity="0.9"/><circle cx="552.0" cy="240.0" r="2" fill="#00ff00" opacity="0.5"/><circle cx="884.0" cy="240.0" r="2" fill="#ff0000" opacity="0.5"/><line x1="884.0" y1="240.0" x2="1050.0" y2="240.0" stroke="#ff6600" stroke-width="3" opacity="0.9"/><line x1="884.0" y1="240.0" x2="964.2" y2="250.6" stroke="#ff3300" stroke-width="2" stroke-dasharray="4,4" opacity="0.7"/><circle cx="884.0" cy="240.0" r="2" fill="#00ff00" opacity="0.5"/><circle cx="1050.0" cy="240.0" r="2" fill="#ff0000" opacity="0.5"/><line x1="1050.0" y1="240.0" x2="1382.0" y2="240.0" stroke="#ffffff" stroke-width="3" opacity="0.9"/><circle cx="1050.0" cy="240.0" r="2" fill="#00ff00" opacity="0.5"/><circle cx="1382.0" cy="240.0" r="2" fill="#ff0000" opacity="0.5"/><line x1="1382.0" y1="240.0" x2="1548.0" y2="240.0" stroke="#ffffff" stroke-width="3" opacity="0.9"/><circle cx="1382.0" cy="240.0" r="2" fill="#00ff00" opacity="0.5"/><circle cx="1548.0" cy="240.0" r="2" fill="#ff0000" opacity="0.5"/><path d="M 1548.0 240.0 L 1575.0 241.2 L 1601.8 244.7 L 1628.2 250.6" stroke="#ffcc00" stroke-width="3" fill="none" opacity="0.9"/><circle cx="1548.0" cy="240.0" r="2" fill="#00ff00" opacity="0.5"/><circle cx="1628.2" cy="250.6" r="2" fill="#ff0000" opacity="0.5"/><path d="M 1628.2 250.6 L 1654.0 258.7 L 1679.0 269.0 L 1703.0 281.5" stroke="#ffcc00" stroke-width="3" fill="none" opacity="0.9"/><circle cx="1628.2" cy="250.6" r="2" fill="#00ff00" opacity="0.5"/><circle cx="1703.0" cy="281.5" r="2" fill="#ff0000" opacity="0.5"/><path d="M 1703.0 281.5 L 1725.8 296.1 L 1747.3 312.5 L 1767.2 330.8" stroke="#ffcc00" stroke-width="3" fill="none" opacity="0.9"/><circle cx="1703.0" cy="281.5" r="2" fill="#00ff00" opacity="0.5"/><circle cx="1767.2" cy="330.8" r="2" fill="#ff0000" opacity="0.5"/><path d="M 1767.2 330.8 L 1785.5 350.7 L 1801.9 372.2 L 1816.5 395.0" stroke="#ffcc00" stroke-width="3" fill="none" opacity="0.9"/><circle cx="1767.2" cy="330.8" r="2" fill="#00ff00" opacity="0.5"/><circle cx="1816.5" cy="395.0" r="2" fill="#ff0000" opacity="0.5"/><path d="M 1816.5 395.0 L 1829.0 419.0 L 1839.3 444.0 L 1847.4 469.8" stroke="#ffcc00" stroke-width="3" fill="none" opacity="0.9"/><circle cx="1816.5" cy="395.0" r="2" fill="#00ff00" opacity="0.5"/><circle cx="1847.4" cy="469.8" r="2" fill="#ff0000" opacity="0.5"/><path d="M 1847.4 469.8 L 1853.3 496.2 L 1856.8 523.0 L 1858.0 550.0" stroke="#ffcc00" stroke-width="3" fill="none" opacity="0.9"/><circle cx="1847.4" cy="469.8" r="2" fill="#00ff00" opacity="0.5"/><circle cx="1858.0" cy="550.0" r="2" fill="#ff0000" opacity="0.5"/><path d="M 1858.0 550.0 L 1856.8 577.0 L 1853.3 603.8 L 1847.4 630.2" stroke="#ffcc00" stroke-width="3" fill="none" opacity="0.9"/><circle cx="1858.0" cy="550.0" r="2" fill="#00ff00" opacity="0.5"/><circle cx="1847.4" cy="630.2" r="2" fill="#ff0000" opacity="0.5"/><path d="M 1847.4 630.2 L 1839.3 656.0 L 1829.0 681.0 L 1816.5 705.0" stroke="#ffcc00" stroke-width="3" fill="none" opacity="0.9"/><circle cx="1847.4" cy="630.2" r="2" fill="#00ff00" opacity="0.5"/><circle cx="1816.5" cy="705.0" r="2" fill="#ff0000" opacity="0.5"/><path d="M 1816.5 705.0 L 1801.9 727.8 L 1785.5 749.3 L 1767.2 769.2" stroke="#ffcc00" stroke-width="3" fill="none" opacity="0.9"/><circle cx="1816.5" cy="705.0" r="2" fill="#00ff00" opacity="0.5"/><circle cx="1767.2" cy="769.2" r="2" fill="#ff0000" opacity="0.5"/><path d="M 1767.2 769.2 L 1747.3 787.5 L 1725.8 803.9 L 1703.0 818.5" stroke="#ffcc00" stroke-width="3" fill="none" opacity="0.9"/><circle cx="1767.2" cy="769.2" r="2" fill="#00ff00" opacity="0.5"/><circle cx="1703.0" cy="818.5" r="2" fill="#ff0000" opacity="0.5"/><path d="M 1703.0 818.5 L 1679.0 831.0 L 1654.0 841.3 L 1628.2 849.4" stroke="#ffcc00" stroke-width="3" fill="none" opacity="0.9"/><circle cx="1703.0" cy="818.5" r="2" fill="#00ff00" opacity="0.5"/><circle cx="1628.2" cy="849.4" r="2" fill="#ff0000" opacity="0.5"/><path d="M 1628.2 849.4 L 1601.8 855.3 L 1575.0 858.8 L 1548.0 860.0" stroke="#ffcc00" stroke-width="3" fill="none" opacity="0.9"/><circle cx="1628.2" cy="849.4" r="2" fill="#00ff00" opacity="0.5"/><circle cx="1548.0" cy="860.0" r="2" fill="#ff0000" opacity="0.5"/><line x1="1548.0" y1="860.0" x2="1216.0" y2="860.0" stroke="#ffffff" stroke-width="3" opacity="0.9"/><circle cx="1548.0" cy="860.0" r="2" fill="#00ff00" opacity="0.5"/><circle cx="1216.0" cy="860.0" r="2" fill="#ff0000" opacity="0.5"/><line x1="1216.0" y1="860.0" x2="884.0" y2="860.0" stroke="#ffffff" stroke-width="3" opacity="0.9"/><circle cx="1216.0" cy="860.0" r="2" fill="#00ff00" opacity="0.5"/><circle cx="884.0" cy="860.0" r="2" fill="#ff0000" opacity="0.5"/><line x1="884.0" y1="860.0" x2="552.0" y2="860.0" stroke="#ffffff" stroke-width="3" opacity="0.9"/><circle cx="884.0" cy="860.0" r="2" fill="#00ff00" opacity="0.5"/><circle cx="552.0" cy="860.0" r="2" fill="#ff0000" opacity="0.5"/><path d="M 552.0 860.0 L 525.0 858.8 L 498.2 855.3 L 471.8 849.4" stroke="#ffcc00" stroke-width="3" fill="none" opacity="0.9"/><circle cx="552.0" cy="860.0" r="2" fill="#00ff00" opacity="0.5"/><circle cx="471.8" cy="849.4" r="2" fill="#ff0000" opacity="0.5"/><path d="M 471.8 849.4 L 446.0 841.3 L 421.0 831.0 L 397.0 818.5" stroke="#ffcc00" stroke-width="3" fill="none" opacity="0.9"/><circle cx="471.8" cy="849.4" r="2" fill="#00ff00" opacity="0.5"/><circle cx="397.0" cy="818.5" r="2" fill="#ff0000" opacity="0.5"/><path d="M 397.0 818.5 L 374.2 803.9 L 352.7 787.5 L 332.8 769.2" stroke="#ffcc00" stroke-width="3" fill="none" opacity="0.9"/><circle cx="397.0" cy="818.5" r="2" fill="#00ff00" opacity="0.5"/><circle cx="332.8" cy="769.2" r="2" fill="#ff0000" opacity="0.5"/><path d="M 332.8 769.2 L 314.5 749.3 L 298.1 727.8 L 283.5 705.0" stroke="#ffcc00" stroke-width="3" fill="none" opacity="0.9"/><circle cx="332.8" cy="769.2" r="2" fill="#00ff00" opacity="0.5"/><circle cx="283.5" cy="705.0" r="2" fill="#ff0000" opacity="0.5"/><path d="M 283.5 705.0 L 271.0 681.0 L 260.7 656.0 L 252.6 630.2" stroke="#ffcc00" stroke-width="3" fill="none" opacity="0.9"/><circle cx="283.5" cy="705.0" r="2" fill="#00ff00" opacity="0.5"/><circle cx="252.6" cy="630.2" r="2" fill="#ff0000" opacity="0.5"/><path d="M 252.6 630.2 L 246.7 603.8 L 243.2 577.0 L 242.0 550.0" stroke="#ffcc00" stroke-width="3" fill="none" opacity="0.9"/><circle cx="252.6" cy="630.2" r="2" fill="#00ff00" opacity="0.5"/><circle cx="242.0" cy="550.0" r="2" fill="#ff0000" opacity="0.5"/><path d="M 242.0 550.0 L 243.2 523.0 L 246.7 496.2 L 252.6 469.8" stroke="#ffcc00" stroke-width="3" fill="none" opacity="0.9"/><circle cx="242.0" cy="550.0" r="2" fill="#00ff00" opacity="0.5"/><circle cx="252.6" cy="469.8" r="2" fill="#ff0000" opacity="0.5"/><path d="M 252.6 469.8 L 260.7 444.0 L 271.0 419.0 L 283.5 395.0" stroke="#ffcc00" stroke-width="3" fill="none" opacity="0.9"/><circle cx="252.6" cy="469.8" r="2" fill="#00ff00" opacity="0.5"/><circle cx="283.5" cy="395.0" r="2" fill="#ff0000" opacity="0.5"/><path d="M 283.5 395.0 L 298.1 372.2 L 314.5 350.7 L 332.8 330.8" stroke="#ffcc00" stroke-width="3" fill="none" opacity="0.9"/><circle cx="283.5" cy="395.0" r="2" fill="#00ff00" opacity="0.5"/><circle cx="332.8" cy="330.8" r="2" fill="#ff0000" opacity="0.5"/><path d="M 332.8 330.8 L 352.7 312.5 L 374.2 296.1 L 397.0 281.5" stroke="#ffcc00" stroke-width="3" fill="none" opacity="0.9"/><circle cx="332.8" cy="330.8" r="2" fill="#00ff00" opacity="0.5"/><circle cx="397.0" cy="281.5" r="2" fill="#ff0000" opacity="0.5"/><path d="M 397.0 281.5 L 421.0 269.0 L 446.0 258.7 L 471.8 250.6" stroke="#ffcc00" stroke-width="3" fill="none" opacity="0.9"/><circle cx="397.0" cy="281.5" r="2" fill="#00ff00" opacity="0.5"/><circle cx="471.8" cy="250.6" r="2" fill="#ff0000" opacity="0.5"/><path d="M 471.8 250.6 L 498.2 244.7 L 525.0 241.2 L 552.0 240.0" stroke="#ffcc00" stroke-width="3" fill="none" opacity="0.9"/><circle cx="471.8" cy="250.6" r="2" fill="#00ff00" opacity="0.5"/><circle cx="552.0" cy="240.0" r="2" fill="#ff0000" opacity="0.5"/><line x1="964.2" y1="250.6" x2="1284.9" y2="336.5" stroke="#00ccff" stroke-width="3" opacity="0.9"/><circle cx="964.2" cy="250.6" r="2" fill="#00ff00" opacity="0.5"/><circle cx="1284.9" cy="336.5" r="2" fill="#ff0000" opacity="0.5"/><line x1="1284.9" y1="336.5" x2="1445.3" y2="379.5" stroke="#00ccff" stroke-width="3" opacity="0.9"/><circle cx="1284.9" cy="336.5" r="2" fill="#00ff00" opacity="0.5"/><circle cx="1445.3" cy="379.5" r="2" fill="#ff0000" opacity="0.5"/><line x1="1445.3" y1="379.5" x2="1525.4" y2="400.9" stroke="#00ccff" stroke-width="3" opacity="0.9"/><circle cx="1445.3" cy="379.5" r="2" fill="#00ff00" opacity="0.5"/><circle cx="1525.4" cy="400.9" r="2" fill="#ff0000" opacity="0.5"/><text x="1050" y="20" text-anchor="middle" fill="white" font-size="16" font-family="sans-serif">Průmyslová vlečka (TT) — 34 tracks, gap: 0.0000mm</text></svg>