<svg xmlns="http://www.w3.org/2000/svg" width="2100" height="1100" viewBox="0 0 2100 1100"><rect width="2100" height="1100" fill="#1a1a2e"/><rect x="50" y="50" width="2000" height="1000" fill="#2a4a2a" stroke="#4a6a4a" stroke-width="2"/><line x1="469.0" y1="245.3" x2="635.0" y2="245.3" stroke="#ff6600" stroke-width="3" opacity="0.9"/><line x1="469.0" y1="245.3" x2="549.2" y2="255.8" stroke="#ff3300" stroke-width="2" stroke-dasharray="4,4" opacity="0.7"/><circle cx="469.0" cy="245.3" r="2" fill="#00ff00" opacity="0.5"/><circle cx="635.0" cy="245.3" r="2" fill="#ff0000" opacity="0.5"/><line x1="635.0" y1="245.3" x2="801.0" y2="245.3" stroke="#ffffff" stroke-width="3" opacity="0.9"/><circle cx="635.0" cy="245.3" r="2" fill="#00ff00" opacity="0.5"/><circle cx="801.0" cy="245.3" r="2" fill="#ff0000" opacity="0.5"/><line x1="801.0" y1="245.3" x2="967.0" y2="245.3" stroke="#ff6600" stroke-width="3" opacity="0.9"/><line x1="801.0" y1="245.3" x2="881.2" y2="255.8" stroke="#ff3300" stroke-width="2" stroke-dasharray="4,4" opacity="0.7"/><circle cx="801.0" cy="245.3" r="2" fill="#00ff00" opacity="0.5"/><circle cx="967.0" cy="245.3" r="2" fill="#ff0000" opacity="0.5"/><line x1="967.0" y1="245.3" x2="1133.0" y2="245.3" stroke="#ffffff" stroke-width="3" opacity="0.9"/><circle cx="967.0" cy="245.3" r="2" fill="#00ff00" opacity="0.5"/><circle cx="1133.0" cy="245.3" r="2" fill="#ff0000" opacity="0.5"/><line x1="1133.0" y1="245.3" x2="1299.0" y2="245.3" stroke="#ff6600" stroke-width="3" opacity="0.9"/><line x1="1133.0" y1="245.3" x2="1213.2" y2="234.7" stroke="#ff3300" stroke-width="2" stroke-dasharray="4,4" opacity="0.7"/><circle cx="1133.0" cy="245.3" r="2" fill="#00ff00" opacity="0.5"/><circle cx="1299.0" cy="245.3" r="2" fill="#ff0000" opacity="0.5"/><line x1="1299.0" y1="245.3" x2="1465.0" y2="245.3" stroke="#ffffff" stroke-width="3" opacity="0.9"/><circle cx="1299.0" cy="245.3" r="2" fill="#00ff00" opacity="0.5"/><circle cx="1465.0" cy="245.3" r="2" fill="#ff0000" opacity="0.5"/><line x1="1465.0" y1="245.3" x2="1631.0" y2="245.3" stroke="#ff6600" stroke-width="3" opacity="0.9"/><line x1="1465.0" y1="245.3" x2="1545.2" y2="234.7" stroke="#ff3300" stroke-width="2" stroke-dasharray="4,4" opacity="0.7"/><circle cx="1465.0" cy="245.3" r="2" fill="#00ff00" opacity="0.5"/><circle cx="1631.0" cy="245.3" r="2" fill="#ff0000" opacity="0.5"/><path d="M 1631.0 245.3 L 1658.0 246.5 L 1684.8 250.0 L 1711.2 255.8" stroke="#ffcc00" stroke-width="3" fill="none" opacity="0.9"/><circle cx="1631.0" cy="245.3" r="2" fill="#00ff00" opacity="0.5"/><circle cx="1711.2" cy="255.8" r="2" fill="#ff0000" opacity="0.5"/><path d="M 1711.2 255.8 L 1737.0 264.0 L 1762.0 274.3 L 1786.0 286.8" stroke="#ffcc00" stroke-width="3" fill="none" opacity="0.9"/><circle cx="1711.2" cy="255.8" r="2" fill="#00ff00" opacity="0.5"/><circle cx="1786.0" cy="286.8" r="2" fill="#ff0000" opacity="0.5"/><path d="M 1786.0 286.8 L 1808.8 301.3 L 1830.3 317.8 L 1850.2 336.1" stroke="#ffcc00" stroke-width="3" fill="none" opacity="0.9"/><circle cx="1786.0" cy="286.8" r="2" fill="#00ff00" opacity="0.5"/><circle cx="1850.2" cy="336.1" r="2" fill="#ff0000" opacity="0.5"/><path d="M 1850.2 336.1 L 1868.5 356.0 L 1884.9 377.5 L 1899.5 400.3" stroke="#ffcc00" stroke-width="3" fill="none" opacity="0.9"/><circle cx="1850.2" cy="336.1" r="2" fill="#00ff00" opacity="0.5"/><circle cx="1899.5" cy="400.3" r="2" fill="#ff0000" opacity="0.5"/><path d="M 1899.5 400.3 L 1912.0 424.3 L 1922.3 449.3 L 1930.4 475.0" stroke="#ffcc00" stroke-width="3" fill="none" opacity="0.9"/><circle cx="1899.5" cy="400.3" r="2" fill="#00ff00" opacity="0.5"/><circle cx="1930.4" cy="475.0" r="2" fill="#ff0000" opacity="0.5"/><path d="M 1930.4 475.0 L 1936.3 501.5 L 1939.8 528.3 L 1941.0 555.3" stroke="#ffcc00" stroke-width="3" fill="none" opacity="0.9"/><circle cx="1930.4" cy="475.0" r="2" fill="#00ff00" opacity="0.5"/><circle cx="1941.0" cy="555.3" r="2" fill="#ff0000" opacity="0.5"/><path d="M 1941.0 555.3 L 1939.8 582.3 L 1936.3 609.1 L 1930.4 635.5" stroke="#ffcc00" stroke-width="3" fill="none" opacity="0.9"/><circle cx="1941.0" cy="555.3" r="2" fill="#00ff00" opacity="0.5"/><circle cx="1930.4" cy="635.5" r="2" fill="#ff0000" opacity="0.5"/><path d="M 1930.4 635.5 L 1922.3 661.3 L 1912.0 686.3 L 1899.5 710.3" stroke="#ffcc00" stroke-width="3" fill="none" opacity="0.9"/><circle cx="1930.4" cy="635.5" r="2" fill="#00ff00" opacity="0.5"/><circle cx="1899.5" cy="710.3" r="2" fill="#ff0000" opacity="0.5"/><path d="M 1899.5 710.3 L 1884.9 733.1 L 1868.5 754.5 L 1850.2 774.5" stroke="#ffcc00" stroke-width="3" fill="none" opacity="0.9"/><circle cx="1899.5" cy="710.3" r="2" fill="#00ff00" opacity="0.5"/><circle cx="1850.2" cy="774.5" r="2" fill="#ff0000" opacity="0.5"/><path d="M 1850.2 774.5 L 1830.3 792.8 L 1808.8 809.2 L 1786.0 823.7" stroke="#ffcc00" stroke-width="3" fill="none" opacity="0.9"/><circle cx="1850.2" cy="774.5" r="2" fill="#00ff00" opacity="0.5"/><circle cx="1786.0" cy="823.7" r="2" fill="#ff0000" opacity="0.5"/><path d="M 1786.0 823.7 L 1762.0 836.2 L 1737.0 846.6 L 1711.2 854.7" stroke="#ffcc00" stroke-width="3" fill="none" opacity="0.9"/><circle cx="1786.0" cy="823.7" r="2" fill="#00ff00" opacity="0.5"/><circle cx="1711.2" cy="854.7" r="2" fill="#ff0000" opacity="0.5"/><path d="M 1711.2 854.7 L 1684.8 860.6 L 1658.0 864.1 L 1631.0 865.3" stroke="#ffcc00" stroke-width="3" fill="none" opacity="0.9"/><circle cx="1711.2" cy="854.7" r="2" fill="#00ff00" opacity="0.5"/><circle cx="1631.0" cy="865.3" r="2" fill="#ff0000" opacity="0.5"/><line x1="1631.0" y1="865.3" x2="1299.0" y2="865.3" stroke="#ffffff" stroke-width="3" opacity="0.9"/><circle cx="1631.0" cy="865.3" r="2" fill="#00ff00" opacity="0.5"/><circle cx="1299.0" cy="865.3" r="2" fill="#ff0000" opacity="0.5"/><line x1="1299.0" y1="865.3" x2="967.0" y2="865.3" stroke="#ffffff" stroke-width="3" opacity="0.9"/><circle cx="1299.0" cy="865.3" r="2" fill="#00ff00" opacity="0.5"/><circle cx="967.0" cy="865.3" r="2" fill="#ff0000" opacity="0.5"/><line x1="967.0" y1="865.3" x2="635.0" y2="865.3" stroke="#ffffff" stroke-width="3" opacity="0.9"/><circle cx="967.0" cy="865.3" r="2" fill="#00ff00" opacity="0.5"/><circle cx="635.0" cy="865.3" r="2" fill="#ff0000" opacity="0.5"/><line x1="635.0" y1="865.3" x2="469.0" y2="865.3" stroke="#ffffff" stroke-width="3" opacity="0.9"/><circle cx="635.0" cy="865.3" r="2" fill="#00ff00" opacity="0.5"/><circle cx="469.0" cy="865.3" r="2" fill="#ff0000" opacity="0.5"/><path d="M 469.0 865.3 L 442.0 864.1 L 415.2 860.6 L 388.8 854.7" stroke="#ffcc00" stroke-width="3" fill="none" opacity="0.9"/><circle cx="469.0" cy="865.3" r="2" fill="#00ff00" opacity="0.5"/><circle cx="388.8" cy="854.7" r="2" fill="#ff0000" opacity="0.5"/><path d="M 388.8 854.7 L 363.0 846.6 L 338.0 836.2 L 314.0 823.7" stroke="#ffcc00" stroke-width="3" fill="none" opacity="0.9"/><circle cx="388.8" cy="854.7" r="2" fill="#00ff00" opacity="0.5"/><circle cx="314.0" cy="823.7" r="2" fill="#ff0000" opacity="0.5"/><path d="M 314.0 823.7 L 291.2 809.2 L 269.7 792.8 L 249.8 774.5" stroke="#ffcc00" stroke-width="3" fill="none" opacity="0.9"/><circle cx="314.0" cy="823.7" r="2" fill="#00ff00" opacity="0.5"/><circle cx="249.8" cy="774.5" r="2" fill="#ff0000" opacity="0.5"/><path d="M 249.8 774.5 L 231.5 754.5 L 215.1 733.1 L 200.5 710.3" stroke="#ffcc00" stroke-width="3" fill="none" opacity="0.9"/><circle cx="249.8" cy="774.5" r="2" fill="#00ff00" opacity="0.5"/><circle cx="200.5" cy="710.3" r="2" fill="#ff0000" opacity="0.5"/><path d="M 200.5 710.3 L 188.0 686.3 L 177.7 661.3 L 169.6 635.5" stroke="#ffcc00" stroke-width="3" fill="none" opacity="0.9"/><circle cx="200.5" cy="710.3" r="2" fill="#00ff00" opacity="0.5"/><circle cx="169.6" cy="635.5" r="2" fill="#ff0000" opacity="0.5"/><path d="M 169.6 635.5 L 163.7 609.1 L 160.2 582.3 L 159.0 555.3" stroke="#ffcc00" stroke-width="3" fill="none" opacity="0.9"/><circle cx="169.6" cy="635.5" r="2" fill="#00ff00" opacity="0.5"/><circle cx="159.0" cy="555.3" r="2" fill="#ff0000" opacity="0.5"/><path d="M 159.0 555.3 L 160.2 528.3 L 163.7 501.5 L 169.6 475.0" stroke="#ffcc00" stroke-width="3" fill="none" opacity="0.9"/><circle cx="159.0" cy="555.3" r="2" fill="#00ff00" opacity="0.5"/><circle cx="169.6" cy="475.0" r="2" fill="#ff0000" opacity="0.5"/><path d="M 169.6 475.0 L 177.7 449.3 L 188.0 424.3 L 200.5 400.3" stroke="#ffcc00" stroke-width="3" fill="none" opacity="0.9"/><circle cx="169.6" cy="475.0" r="2" fill="#00ff00" opacity="0.5"/><circle cx="200.5" cy="400.3" r="2" fill="#ff0000" opacity="0.5"/><path d="M 200.5 400.3 L 215.1 377.5 L 231.5 356.0 L 249.8 336.1" stroke="#ffcc00" stroke-width="3" fill="none" opacity="0.9"/><circle cx="200.5" cy="400.3" r="2" fill="#00ff00" opacity="0.5"/><circle cx="249.8" cy="336.1" r="2" fill="#ff0000" opacity="0.5"/><path d="M 249.8 336.1 L 269.7 317.8 L 291.2 301.3 L 314.0 286.8" stroke="#ffcc00" stroke-width="3" fill="none" opacity="0.9"/><circle cx="249.8" cy="336.1" r="2" fill="#00ff00" opacity="0.5"/><circle cx="314.0" cy="286.8" r="2" fill="#ff0000" opacity="0.5"/><path d="M 314.0 286.8 L 338.0 274.3 L 363.0 264.0 L 388.8 255.8" stroke="#ffcc00" stroke-width="3" fill="none" opacity="0.9"/><circle cx="314.0" cy="286.8" r="2" fill="#00ff00" opacity="0.5"/><circle cx="388.8" cy="255.8" r="2" fill="#ff0000" opacity="0.5"/><path d="M 388.8 255.8 L 415.2 250.0 L 442.0 246.5 L 469.0 245.3" stroke="#ffcc00" stroke-width="3" fill="none" opacity="0.9"/><circle cx="388.8" cy="255.8" r="2" fill="#00ff00" opacity="0.5"/><circle cx="469.0" cy="245.3" r="2" fill="#ff0000" opacity="0.5"/><line x1="549.2" y1="255.8" x2="709.6" y2="298.8" stroke="#00ccff" stroke-width="3" opacity="0.9"/><circle cx="549.2" cy="255.8" r="2" fill="#00ff00" opacity="0.5"/><circle cx="709.6" cy="298.8" r="2" fill="#ff0000" opacity="0.5"/><line x1="709.6" y1="298.8" x2="869.9" y2="341.8" stroke="#00ccff" stroke-width="3" opacity="0.9"/><circle cx="709.6" cy="298.8" r="2" fill="#00ff00" opacity="0.5"/><circle cx="869.9" cy="341.8" r="2" fill="#ff0000" opacity="0.5"/><line x1="869.9" y1="341.8" x2="1030.3" y2="384.7" stroke="#00ccff" stroke-width="3" opacity="0.9"/><circle cx="869.9" cy="341.8" r="2" fill="#00ff00" opacity="0.5"/><circle cx="1030.3" cy="384.7" r="2" fill="#ff0000" opacity="0.5"/><line x1="881.2" y1="255.8" x2="1041.6" y2="298.8" stroke="#00ccff" stroke-width="3" opacity="0.9"/><circle cx="881.2" cy="255.8" r="2" fill="#00ff00" opacity="0.5"/><circle cx="1041.6" cy="298.8" r="2" fill="#ff0000" opacity="0.5"/><line x1="1041.6" y1="298.8" x2="1121.7" y2="320.3" stroke="#00ccff" stroke-width="3" opacity="0.9"/><circle cx="1041.6" cy="298.8" r="2" fill="#00ff00" opacity="0.5"/><circle cx="1121.7" cy="320.3" r="2" fill="#ff0000" opacity="0.5"/><text x="1050" y="20" text-anchor="middle" fill="white" font-size="16" font-family="sans-serif">Stanice s nádražím (TT) — 40 tracks, gap: 0.0000mm</text></svg>