<svg xmlns="http://www.w3.org/2000/svg" width="2100" height="1100" viewBox="0 0 2100 1100"><rect width="2100" height="1100" fill="#1a1a2e"/><rect x="50" y="50" width="2000" height="1000" fill="#2a4a2a" stroke="#4a6a4a" stroke-width="2"/><line x1="469.0" y1="240.0" x2="801.0" y2="240.0" stroke="#ffffff" stroke-width="3" opacity="0.9"/><circle cx="469.0" cy="240.0" r="2" fill="#00ff00" opacity="0.5"/><circle cx="801.0" cy="240.0" r="2" fill="#ff0000" opacity="0.5"/><line x1="801.0" y1="240.0" x2="1133.0" y2="240.0" stroke="#ffffff" stroke-width="3" opacity="0.9"/><circle cx="801.0" cy="240.0" r="2" fill="#00ff00" opacity="0.5"/><circle cx="1133.0" cy="240.0" r="2" fill="#ff0000" opacity="0.5"/><line x1="1133.0" y1="240.0" x2="1299.0" y2="240.0" stroke="#ffffff" stroke-width="3" opacity="0.9"/><circle cx="1133.0" cy="240.0" r="2" fill="#00ff00" opacity="0.5"/><circle cx="1299.0" cy="240.0" r="2" fill="#ff0000" opacity="0.5"/><line x1="1299.0" y1="240.0" x2="1631.0" y2="240.0" stroke="#ffffff" stroke-width="3" opacity="0.9"/><circle cx="1299.0" cy="240.0" r="2" fill="#00ff00" opacity="0.5"/><circle cx="1631.0" cy="240.0" r="2" fill="#ff0000" opacity="0.5"/><path d="M 1631.0 240.0 L 1658.0 241.2 L 1684.8 244.7 L 1711.2 250.6" stroke="#ffcc00" stroke-width="3" fill="none" opacity="0.9"/><circle cx="1631.0" cy="240.0" r="2" fill="#00ff00" opacity="0.5"/><circle cx="1711.2" cy="250.6" r="2" fill="#ff0000" opacity="0.5"/><path d="M 1711.2 250.6 L 1737.0 258.7 L 1762.0 269.0 L 1786.0 281.5" stroke="#ffcc00" stroke-width="3" fill="none" opacity="0.9"/><circle cx="1711.2" cy="250.6" r="2" fill="#00ff00" opacity="0.5"/><circle cx="1786.0" cy="281.5" r="2" fill="#ff0000" opacity="0.5"/><path d="M 1786.0 281.5 L 1808.8 296.1 L 1830.3 312.5 L 1850.2 330.8" stroke="#ffcc00" stroke-width="3" fill="none" opacity="0.9"/><circle cx="1786.0" cy="281.5" r="2" fill="#00ff00" opacity="0.5"/><circle cx="1850.2" cy="330.8" r="2" fill="#ff0000" opacity="0.5"/><path d="M 1850.2 330.8 L 1868.5 350.7 L 1884.9 372.2 L 1899.5 395.0" stroke="#ffcc00" stroke-width="3" fill="none" opacity="0.9"/><circle cx="1850.2" cy="330.8" r="2" fill="#00ff00" opacity="0.5"/><circle cx="1899.5" cy="395.0" r="2" fill="#ff0000" opacity="0.5"/><path d="M 1899.5 395.0 L 1912.0 419.0 L 1922.3 444.0 L 1930.4 469.8" stroke="#ffcc00" stroke-width="3" fill="none" opacity="0.9"/><circle cx="1899.5" cy="395.0" r="2" fill="#00ff00" opacity="0.5"/><circle cx="1930.4" cy="469.8" r="2" fill="#ff0000" opacity="0.5"/><path d="M 1930.4 469.8 L 1936.3 496.2 L 1939.8 523.0 L 1941.0 550.0" stroke="#ffcc00" stroke-width="3" fill="none" opacity="0.9"/><circle cx="1930.4" cy="469.8" r="2" fill="#00ff00" opacity="0.5"/><circle cx="1941.0" cy="550.0" r="2" fill="#ff0000" opacity="0.5"/><path d="M 1941.0 550.0 L 1939.8 577.0 L 1936.3 603.8 L 1930.4 630.2" stroke="#ffcc00" stroke-width="3" fill="none" opacity="0.9"/><circle cx="1941.0" cy="550.0" r="2" fill="#00ff00" opacity="0.5"/><circle cx="1930.4" cy="630.2" r="2" fill="#ff0000" opacity="0.5"/><path d="M 1930.4 630.2 L 1922.3 656.0 L 1912.0 681.0 L 1899.5 705.0" stroke="#ffcc00" stroke-width="3" fill="none" opacity="0.9"/><circle cx="1930.4" cy="630.2" r="2" fill="#00ff00" opacity="0.5"/><circle cx="1899.5" cy="705.0" r="2" fill="#ff0000" opacity="0.5"/><path d="M 1899.5 705.0 L 1884.9 727.8 L 1868.5 749.3 L 1850.2 769.2" stroke="#ffcc00" stroke-width="3" fill="none" opacity="0.9"/><circle cx="1899.5" cy="705.0" r="2" fill="#00ff00" opacity="0.5"/><circle cx="1850.2" cy="769.2" r="2" fill="#ff0000" opacity="0.5"/><path d="M 1850.2 769.2 L 1830.3 787.5 L 1808.8 803.9 L 1786.0 818.5" stroke="#ffcc00" stroke-width="3" fill="none" opacity="0.9"/><circle cx="1850.2" cy="769.2" r="2" fill="#00ff00" opacity="0.5"/><circle cx="1786.0" cy="818.5" r="2" fill="#ff0000" opacity="0.5"/><path d="M 1786.0 818.5 L 1762.0 831.0 L 1737.0 841.3 L 1711.2 849.4" stroke="#ffcc00" stroke-width="3" fill="none" opacity="0.9"/><circle cx="1786.0" cy="818.5" r="2" fill="#00ff00" opacity="0.5"/><circle cx="1711.2" cy="849.4" r="2" fill="#ff0000" opacity="0.5"/><path d="M 1711.2 849.4 L 1684.8 855.3 L 1658.0 858.8 L 1631.0 860.0" stroke="#ffcc00" stroke-width="3" fill="none" opacity="0.9"/><circle cx="1711.2" cy="849.4" r="2" fill="#00ff00" opacity="0.5"/><circle cx="1631.0" cy="860.0" r="2" fill="#ff0000" opacity="0.5"/><line x1="1631.0" y1="860.0" x2="1299.0" y2="860.0" stroke="#ffffff" stroke-width="3" opacity="0.9"/><circle cx="1631.0" cy="860.0" r="2" fill="#00ff00" opacity="0.5"/><circle cx="1299.0" cy="860.0" r="2" fill="#ff0000" opacity="0.5"/><line x1="1299.0" y1="860.0" x2="967.0" y2="860.0" stroke="#ffffff" stroke-width="3" opacity="0.9"/><circle cx="1299.0" cy="860.0" r="2" fill="#00ff00" opacity="0.5"/><circle cx="967.0" cy="860.0" r="2" fill="#ff0000" opacity="0.5"/><line x1="967.0" y1="860.0" x2="801.0" y2="860.0" stroke="#ffffff" stroke-width="3" opacity="0.9"/><circle cx="967.0" cy="860.0" r="2" fill="#00ff00" opacity="0.5"/><circle cx="801.0" cy="860.0" r="2" fill="#ff0000" opacity="0.5"/><line x1="801.0" y1="860.0" x2="469.0" y2="860.0" stroke="#ffffff" stroke-width="3" opacity="0.9"/><circle cx="801.0" cy="860.0" r="2" fill="#00ff00" opacity="0.5"/><circle cx="469.0" cy="860.0" r="2" fill="#ff0000" opacity="0.5"/><path d="M 469.0 860.0 L 442.0 858.8 L 415.2 855.3 L 388.8 849.4" stroke="#ffcc00" stroke-width="3" fill="none" opacity="0.9"/><circle cx="469.0" cy="860.0" r="2" fill="#00ff00" opacity="0.5"/><circle cx="388.8" cy="849.4" r="2" fill="#ff0000" opacity="0.5"/><path d="M 388.8 849.4 L 363.0 841.3 L 338.0 831.0 L 314.0 818.5" stroke="#ffcc00" stroke-width="3" fill="none" opacity="0.9"/><circle cx="388.8" cy="849.4" r="2" fill="#00ff00" opacity="0.5"/><circle cx="314.0" cy="818.5" r="2" fill="#ff0000" opacity="0.5"/><path d="M 314.0 818.5 L 291.2 803.9 L 269.7 787.5 L 249.8 769.2" stroke="#ffcc00" stroke-width="3" fill="none" opacity="0.9"/><circle cx="314.0" cy="818.5" r="2" fill="#00ff00" opacity="0.5"/><circle cx="249.8" cy="769.2" r="2" fill="#ff0000" opacity="0.5"/><path d="M 249.8 769.2 L 231.5 749.3 L 215.1 727.8 L 200.5 705.0" stroke="#ffcc00" stroke-width="3" fill="none" opacity="0.9"/><circle cx="249.8" cy="769.2" r="2" fill="#00ff00" opacity="0.5"/><circle cx="200.5" cy="705.0" r="2" fill="#ff0000" opacity="0.5"/><path d="M 200.5 705.0 L 188.0 681.0 L 177.7 656.0 L 169.6 630.2" stroke="#ffcc00" stroke-width="3" fill="none" opacity="0.9"/><circle cx="200.5" cy="705.0" r="2" fill="#00ff00" opacity="0.5"/><circle cx="169.6" cy="630.2" r="2" fill="#ff0000" opacity="0.5"/><path d="M 169.6 630.2 L 163.7 603.8 L 160.2 577.0 L 159.0 550.0" stroke="#ffcc00" stroke-width="3" fill="none" opacity="0.9"/><circle cx="169.6" cy="630.2" r="2" fill="#00ff00" opacity="0.5"/><circle cx="159.0" cy="550.0" r="2" fill="#ff0000" opacity="0.5"/><path d="M 159.0 550.0 L 160.2 523.0 L 163.7 496.2 L 169.6 469.8" stroke="#ffcc00" stroke-width="3" fill="none" opacity="0.9"/><circle cx="159.0" cy="550.0" r="2" fill="#00ff00" opacity="0.5"/><circle cx="169.6" cy="469.8" r="2" fill="#ff0000" opacity="0.5"/><path d="M 169.6 469.8 L 177.7 444.0 L 188.0 419.0 L 200.5 395.0" stroke="#ffcc00" stroke-width="3" fill="none" opacity="0.9"/><circle cx="169.6" cy="469.8" r="2" fill="#00ff00" opacity="0.5"/><circle cx="200.5" cy="395.0" r="2" fill="#ff0000" opacity="0.5"/><path d="M 200.5 395.0 L 215.1 372.2 L 231.5 350.7 L 249.8 330.8" stroke="#ffcc00" stroke-width="3" fill="none" opacity="0.9"/><circle cx="200.5" cy="395.0" r="2" fill="#00ff00" opacity="0.5"/><circle cx="249.8" cy="330.8" r="2" fill="#ff0000" opacity="0.5"/><path d="M 249.8 330.8 L 269.7 312.5 L 291.2 296.1 L 314.0 281.5" stroke="#ffcc00" stroke-width="3" fill="none" opacity="0.9"/><circle cx="249.8" cy="330.8" r="2" fill="#00ff00" opacity="0.5"/><circle cx="314.0" cy="281.5" r="2" fill="#ff0000" opacity="0.5"/><path d="M 314.0 281.5 L 338.0 269.0 L 363.0 258.7 L 388.8 250.6" stroke="#ffcc00" stroke-width="3" fill="none" opacity="0.9"/><circle cx="314.0" cy="281.5" r="2" fill="#00ff00" opacity="0.5"/><circle cx="388.8" cy="250.6" r="2" fill="#ff0000" opacity="0.5"/><path d="M 388.8 250.6 L 415.2 244.7 L 442.0 241.2 L 469.0 240.0" stroke="#ffcc00" stroke-width="3" fill="none" opacity="0.9"/><circle cx="388.8" cy="250.6" r="2" fill="#00ff00" opacity="0.5"/><circle cx="469.0" cy="240.0" r="2" fill="#ff0000" opacity="0.5"/><text x="1050" y="20" text-anchor="middle" fill="white" font-size="16" font-family="sans-serif">Osmička (TT) — 32 tracks, gap: 0.0000mm</text></svg>