<svg xmlns="http://www.w3.org/2000/svg" width="2100" height="1100" viewBox="0 0 2100 1100"><rect width="2100" height="1100" fill="#1a1a2e"/><rect x="50" y="50" width="2000" height="1000" fill="#2a4a2a" stroke="#4a6a4a" stroke-width="2"/><line x1="552.0" y1="245.3" x2="718.0" y2="245.3" stroke="#ff6600" stroke-width="3" opacity="0.9"/><line x1="552.0" y1="245.3" x2="632.2" y2="255.8" stroke="#ff3300" stroke-width="2" stroke-dasharray="4,4" opacity="0.7"/><circle cx="552.0" cy="245.3" r="2" fill="#00ff00" opacity="0.5"/><circle cx="718.0" cy="245.3" r="2" fill="#ff0000" opacity="0.5"/><line x1="718.0" y1="245.3" x2="1050.0" y2="245.3" stroke="#ffffff" stroke-width="3" opacity="0.9"/><circle cx="718.0" cy="245.3" r="2" fill="#00ff00" opacity="0.5"/><circle cx="1050.0" cy="245.3" r="2" fill="#ff0000" opacity="0.5"/><line x1="1050.0" y1="245.3" x2="1382.0" y2="245.3" stroke="#ffffff" stroke-width="3" opacity="0.9"/><circle cx="1050.0" cy="245.3" r="2" fill="#00ff00" opacity="0.5"/><circle cx="1382.0" cy="245.3" r="2" fill="#ff0000" opacity="0.5"/><line x1="1382.0" y1="245.3" x2="1548.0" y2="245.3" stroke="#ff6600" stroke-width="3" opacity="0.9"/><line x1="1382.0" y1="245.3" x2="1462.2" y2="234.7" stroke="#ff3300" stroke-width="2" stroke-dasharray="4,4" opacity="0.7"/><circle cx="1382.0" cy="245.3" r="2" fill="#00ff00" opacity="0.5"/><circle cx="1548.0" cy="245.3" r="2" fill="#ff0000" opacity="0.5"/><path d="M 1548.0 245.3 L 1575.0 246.5 L 1601.8 250.0 L 1628.2 255.8" stroke="#ffcc00" stroke-width="3" fill="none" opacity="0.9"/><circle cx="1548.0" cy="245.3" r="2" fill="#00ff00" opacity="0.5"/><circle cx="1628.2" cy="255.8" r="2" fill="#ff0000" opacity="0.5"/><path d="M 1628.2 255.8 L 1654.0 264.0 L 1679.0 274.3 L 1703.0 286.8" stroke="#ffcc00" stroke-width="3" fill="none" opacity="0.9"/><circle cx="1628.2" cy="255.8" r="2" fill="#00ff00" opacity="0.5"/><circle cx="1703.0" cy="286.8" r="2" fill="#ff0000" opacity="0.5"/><path d="M 1703.0 286.8 L 1725.8 301.3 L 1747.3 317.8 L 1767.2 336.1" stroke="#ffcc00" stroke-width="3" fill="none" opacity="0.9"/><circle cx="1703.0" cy="286.8" r="2" fill="#00ff00" opacity="0.5"/><circle cx="1767.2" cy="336.1" r="2" fill="#ff0000" opacity="0.5"/><path d="M 1767.2 336.1 L 1785.5 356.0 L 1801.9 377.5 L 1816.5 400.3" stroke="#ffcc00" stroke-width="3" fill="none" opacity="0.9"/><circle cx="1767.2" cy="336.1" r="2" fill="#00ff00" opacity="0.5"/><circle cx="1816.5" cy="400.3" r="2" fill="#ff0000" opacity="0.5"/><path d="M 1816.5 400.3 L 1829.0 424.3 L 1839.3 449.3 L 1847.4 475.0" stroke="#ffcc00" stroke-width="3" fill="none" opacity="0.9"/><circle cx="1816.5" cy="400.3" r="2" fill="#00ff00" opacity="0.5"/><circle cx="1847.4" cy="475.0" r="2" fill="#ff0000" opacity="0.5"/><path d="M 1847.4 475.0 L 1853.3 501.5 L 1856.8 528.3 L 1858.0 555.3" stroke="#ffcc00" stroke-width="3" fill="none" opacity="0.9"/><circle cx="1847.4" cy="475.0" r="2" fill="#00ff00" opacity="0.5"/><circle cx="1858.0" cy="555.3" r="2" fill="#ff0000" opacity="0.5"/><path d="M 1858.0 555.3 L 1856.8 582.3 L 1853.3 609.1 L 1847.4 635.5" stroke="#ffcc00" stroke-width="3" fill="none" opacity="0.9"/><circle cx="1858.0" cy="555.3" r="2" fill="#00ff00" opacity="0.5"/><circle cx="1847.4" cy="635.5" r="2" fill="#ff0000" opacity="0.5"/><path d="M 1847.4 635.5 L 1839.3 661.3 L 1829.0 686.3 L 1816.5 710.3" stroke="#ffcc00" stroke-width="3" fill="none" opacity="0.9"/><circle cx="1847.4" cy="635.5" r="2" fill="#00ff00" opacity="0.5"/><circle cx="1816.5" cy="710.3" r="2" fill="#ff0000" opacity="0.5"/><path d="M 1816.5 710.3 L 1801.9 733.1 L 1785.5 754.5 L 1767.2 774.5" stroke="#ffcc00" stroke-width="3" fill="none" opacity="0.9"/><circle cx="1816.5" cy="710.3" r="2" fill="#00ff00" opacity="0.5"/><circle cx="1767.2" cy="774.5" r="2" fill="#ff0000" opacity="0.5"/><path d="M 1767.2 774.5 L 1747.3 792.8 L 1725.8 809.2 L 1703.0 823.7" stroke="#ffcc00" stroke-width="3" fill="none" opacity="0.9"/><circle cx="1767.2" cy="774.5" r="2" fill="#00ff00" opacity="0.5"/><circle cx="1703.0" cy="823.7" r="2" fill="#ff0000" opacity="0.5"/><path d="M 1703.0 823.7 L 1679.0 836.2 L 1654.0 846.6 L 1628.2 854.7" stroke="#ffcc00" stroke-width="3" fill="none" opacity="0.9"/><circle cx="1703.0" cy="823.7" r="2" fill="#00ff00" opacity="0.5"/><circle cx="1628.2" cy="854.7" r="2" fill="#ff0000" opacity="0.5"/><path d="M 1628.2 854.7 L 1601.8 860.6 L 1575.0 864.1 L 1548.0 865.3" stroke="#ffcc00" stroke-width="3" fill="none" opacity="0.9"/><circle cx="1628.2" cy="854.7" r="2" fill="#00ff00" opacity="0.5"/><circle cx="1548.0" cy="865.3" r="2" fill="#ff0000" opacity="0.5"/><line x1="1548.0" y1="865.3" x2="1216.0" y2="865.3" stroke="#ffffff" stroke-width="3" opacity="0.9"/><circle cx="1548.0" cy="865.3" r="2" fill="#00ff00" opacity="0.5"/><circle cx="1216.0" cy="865.3" r="2" fill="#ff0000" opacity="0.5"/><line x1="1216.0" y1="865.3" x2="884.0" y2="865.3" stroke="#ffffff" stroke-width="3" opacity="0.9"/><circle cx="1216.0" cy="865.3" r="2" fill="#00ff00" opacity="0.5"/><circle cx="884.0" cy="865.3" r="2" fill="#ff0000" opacity="0.5"/><line x1="884.0" y1="865.3" x2="552.0" y2="865.3" stroke="#ffffff" stroke-width="3" opacity="0.9"/><circle cx="884.0" cy="865.3" r="2" fill="#00ff00" opacity="0.5"/><circle cx="552.0" cy="865.3" r="2" fill="#ff0000" opacity="0.5"/><path d="M 552.0 865.3 L 525.0 864.1 L 498.2 860.6 L 471.8 854.7" stroke="#ffcc00" stroke-width="3" fill="none" opacity="0.9"/><circle cx="552.0" cy="865.3" r="2" fill="#00ff00" opacity="0.5"/><circle cx="471.8" cy="854.7" r="2" fill="#ff0000" opacity="0.5"/><path d="M 471.8 854.7 L 446.0 846.6 L 421.0 836.2 L 397.0 823.7" stroke="#ffcc00" stroke-width="3" fill="none" opacity="0.9"/><circle cx="471.8" cy="854.7" r="2" fill="#00ff00" opacity="0.5"/><circle cx="397.0" cy="823.7" r="2" fill="#ff0000" opacity="0.5"/><path d="M 397.0 823.7 L 374.2 809.2 L 352.7 792.8 L 332.8 774.5" stroke="#ffcc00" stroke-width="3" fill="none" opacity="0.9"/><circle cx="397.0" cy="823.7" r="2" fill="#00ff00" opacity="0.5"/><circle cx="332.8" cy="774.5" r="2" fill="#ff0000" opacity="0.5"/><path d="M 332.8 774.5 L 314.5 754.5 L 298.1 733.1 L 283.5 710.3" stroke="#ffcc00" stroke-width="3" fill="none" opacity="0.9"/><circle cx="332.8" cy="774.5" r="2" fill="#00ff00" opacity="0.5"/><circle cx="283.5" cy="710.3" r="2" fill="#ff0000" opacity="0.5"/><path d="M 283.5 710.3 L 271.0 686.3 L 260.7 661.3 L 252.6 635.5" stroke="#ffcc00" stroke-width="3" fill="none" opacity="0.9"/><circle cx="283.5" cy="710.3" r="2" fill="#00ff00" opacity="0.5"/><circle cx="252.6" cy="635.5" r="2" fill="#ff0000" opacity="0.5"/><path d="M 252.6 635.5 L 246.7 609.1 L 243.2 582.3 L 242.0 555.3" stroke="#ffcc00" stroke-width="3" fill="none" opacity="0.9"/><circle cx="252.6" cy="635.5" r="2" fill="#00ff00" opacity="0.5"/><circle cx="242.0" cy="555.3" r="2" fill="#ff0000" opacity="0.5"/><path d="M 242.0 555.3 L 243.2 528.3 L 246.7 501.5 L 252.6 475.0" stroke="#ffcc00" stroke-width="3" fill="none" opacity="0.9"/><circle cx="242.0" cy="555.3" r="2" fill="#00ff00" opacity="0.5"/><circle cx="252.6" cy="475.0" r="2" fill="#ff0000" opacity="0.5"/><path d="M 252.6 475.0 L 260.7 449.3 L 271.0 424.3 L 283.5 400.3" stroke="#ffcc00" stroke-width="3" fill="none" opacity="0.9"/><circle cx="252.6" cy="475.0" r="2" fill="#00ff00" opacity="0.5"/><circle cx="283.5" cy="400.3" r="2" fill="#ff0000" opacity="0.5"/><path d="M 283.5 400.3 L 298.1 377.5 L 314.5 356.0 L 332.8 336.1" stroke="#ffcc00" stroke-width="3" fill="none" opacity="0.9"/><circle cx="283.5" cy="400.3" r="2" fill="#00ff00" opacity="0.5"/><circle cx="332.8" cy="336.1" r="2" fill="#ff0000" opacity="0.5"/><path d="M 332.8 336.1 L 352.7 317.8 L 374.2 301.3 L 397.0 286.8" stroke="#ffcc00" stroke-width="3" fill="none" opacity="0.9"/><circle cx="332.8" cy="336.1" r="2" fill="#00ff00" opacity="0.5"/><circle cx="397.0" cy="286.8" r="2" fill="#ff0000" opacity="0.5"/><path d="M 397.0 286.8 L 421.0 274.3 L 446.0 264.0 L 471.8 255.8" stroke="#ffcc00" stroke-width="3" fill="none" opacity="0.9"/><circle cx="397.0" cy="286.8" r="2" fill="#00ff00" opacity="0.5"/><circle cx="471.8" cy="255.8" r="2" fill="#ff0000" opacity="0.5"/><path d="M 471.8 255.8 L 498.2 250.0 L 525.0 246.5 L 552.0 245.3" stroke="#ffcc00" stroke-width="3" fill="none" opacity="0.9"/><circle cx="471.8" cy="255.8" r="2" fill="#00ff00" opacity="0.5"/><circle cx="552.0" cy="245.3" r="2" fill="#ff0000" opacity="0.5"/><line x1="632.2" y1="255.8" x2="952.9" y2="341.8" stroke="#00ccff" stroke-width="3" opacity="0.9"/><circle cx="632.2" cy="255.8" r="2" fill="#00ff00" opacity="0.5"/><circle cx="952.9" cy="341.8" r="2" fill="#ff0000" opacity="0.5"/><line x1="952.9" y1="341.8" x2="1273.6" y2="427.7" stroke="#00ccff" stroke-width="3" opacity="0.9"/><circle cx="952.9" cy="341.8" r="2" fill="#00ff00" opacity="0.5"/><circle cx="1273.6" cy="427.7" r="2" fill="#ff0000" opacity="0.5"/><text x="1050" y="20" text-anchor="middle" fill="white" font-size="16" font-family="sans-serif">Ovál s výhybnou (TT) — 33 tracks, gap: 0.0000mm</text></svg>